<mxfile host="65bd71144e">
    <diagram name="Page-1" id="5f0bae14-7c28-e335-631c-24af17079c00">
        <mxGraphModel dx="953" dy="1109" grid="1" gridSize="10" guides="1" tooltips="1" connect="1" arrows="1" fold="1" page="1" pageScale="1" pageWidth="1100" pageHeight="850" background="none" math="0" shadow="0">
            <root>
                <mxCell id="0"/>
                <mxCell id="1" parent="0"/>
                <mxCell id="-2r-90PtI8P-8tN_v8Jw-11" style="edgeStyle=orthogonalEdgeStyle;rounded=0;orthogonalLoop=1;jettySize=auto;html=1;endArrow=none;endFill=0;" parent="1" source="-2r-90PtI8P-8tN_v8Jw-1" target="-2r-90PtI8P-8tN_v8Jw-4" edge="1">
                    <mxGeometry relative="1" as="geometry"/>
                </mxCell>
                <mxCell id="-2r-90PtI8P-8tN_v8Jw-1" value="Unauthorised user" style="shape=umlActor;verticalLabelPosition=bottom;verticalAlign=top;html=1;fillColor=#f8cecc;strokeColor=#b85450;" parent="1" vertex="1">
                    <mxGeometry x="170" y="235" width="30" height="60" as="geometry"/>
                </mxCell>
                <mxCell id="-2r-90PtI8P-8tN_v8Jw-14" style="rounded=0;orthogonalLoop=1;jettySize=auto;html=1;endArrow=none;endFill=0;" parent="1" source="-2r-90PtI8P-8tN_v8Jw-2" target="-2r-90PtI8P-8tN_v8Jw-12" edge="1">
                    <mxGeometry relative="1" as="geometry"/>
                </mxCell>
                <mxCell id="-2r-90PtI8P-8tN_v8Jw-20" style="rounded=0;orthogonalLoop=1;jettySize=auto;html=1;endArrow=none;endFill=0;" parent="1" source="-2r-90PtI8P-8tN_v8Jw-2" target="-2r-90PtI8P-8tN_v8Jw-15" edge="1">
                    <mxGeometry relative="1" as="geometry"/>
                </mxCell>
                <mxCell id="-2r-90PtI8P-8tN_v8Jw-23" style="rounded=0;orthogonalLoop=1;jettySize=auto;html=1;endArrow=none;endFill=0;" parent="1" source="-2r-90PtI8P-8tN_v8Jw-2" target="-2r-90PtI8P-8tN_v8Jw-19" edge="1">
                    <mxGeometry relative="1" as="geometry"/>
                </mxCell>
                <mxCell id="-2r-90PtI8P-8tN_v8Jw-24" style="rounded=0;orthogonalLoop=1;jettySize=auto;html=1;endArrow=none;endFill=0;" parent="1" source="-2r-90PtI8P-8tN_v8Jw-2" target="-2r-90PtI8P-8tN_v8Jw-18" edge="1">
                    <mxGeometry relative="1" as="geometry"/>
                </mxCell>
                <mxCell id="-2r-90PtI8P-8tN_v8Jw-27" style="rounded=0;orthogonalLoop=1;jettySize=auto;html=1;endArrow=none;endFill=0;" parent="1" source="-2r-90PtI8P-8tN_v8Jw-2" target="-2r-90PtI8P-8tN_v8Jw-26" edge="1">
                    <mxGeometry relative="1" as="geometry"/>
                </mxCell>
                <mxCell id="-2r-90PtI8P-8tN_v8Jw-2" value="Authorised user" style="shape=umlActor;verticalLabelPosition=bottom;verticalAlign=top;html=1;fillColor=#dae8fc;strokeColor=#6c8ebf;" parent="1" vertex="1">
                    <mxGeometry x="170" y="810" width="30" height="60" as="geometry"/>
                </mxCell>
                <mxCell id="-2r-90PtI8P-8tN_v8Jw-3" value="Quiz Application" style="shape=umlFrame;whiteSpace=wrap;html=1;pointerEvents=0;width=110;height=30;fillColor=#f5f5f5;fontColor=#333333;strokeColor=#666666;" parent="1" vertex="1">
                    <mxGeometry x="280" y="120" width="480" height="1000" as="geometry"/>
                </mxCell>
                <mxCell id="-2r-90PtI8P-8tN_v8Jw-4" value="Signup" style="ellipse;whiteSpace=wrap;html=1;fillColor=#dae8fc;strokeColor=#6c8ebf;" parent="1" vertex="1">
                    <mxGeometry x="320" y="230" width="140" height="70" as="geometry"/>
                </mxCell>
                <mxCell id="-2r-90PtI8P-8tN_v8Jw-6" style="rounded=0;orthogonalLoop=1;jettySize=auto;html=1;dashed=1;endArrow=open;endFill=0;dashPattern=8 8;" parent="1" source="-2r-90PtI8P-8tN_v8Jw-5" target="-2r-90PtI8P-8tN_v8Jw-4" edge="1">
                    <mxGeometry relative="1" as="geometry"/>
                </mxCell>
                <mxCell id="-2r-90PtI8P-8tN_v8Jw-7" value="&amp;lt;&amp;lt;extend&amp;gt;&amp;gt;" style="edgeLabel;html=1;align=center;verticalAlign=middle;resizable=0;points=[];" parent="-2r-90PtI8P-8tN_v8Jw-6" vertex="1" connectable="0">
                    <mxGeometry x="-0.1091" y="1" relative="1" as="geometry">
                        <mxPoint as="offset"/>
                    </mxGeometry>
                </mxCell>
                <mxCell id="-2r-90PtI8P-8tN_v8Jw-5" value="Register" style="ellipse;whiteSpace=wrap;html=1;fillColor=#f8cecc;strokeColor=#b85450;" parent="1" vertex="1">
                    <mxGeometry x="570" y="160" width="140" height="70" as="geometry"/>
                </mxCell>
                <mxCell id="-2r-90PtI8P-8tN_v8Jw-9" style="rounded=0;orthogonalLoop=1;jettySize=auto;html=1;dashed=1;dashPattern=8 8;endArrow=open;endFill=0;" parent="1" source="-2r-90PtI8P-8tN_v8Jw-8" target="-2r-90PtI8P-8tN_v8Jw-4" edge="1">
                    <mxGeometry relative="1" as="geometry"/>
                </mxCell>
                <mxCell id="-2r-90PtI8P-8tN_v8Jw-10" value="&amp;lt;&amp;lt;extend&amp;gt;&amp;gt;" style="edgeLabel;html=1;align=center;verticalAlign=middle;resizable=0;points=[];" parent="-2r-90PtI8P-8tN_v8Jw-9" vertex="1" connectable="0">
                    <mxGeometry x="-0.1612" y="-1" relative="1" as="geometry">
                        <mxPoint as="offset"/>
                    </mxGeometry>
                </mxCell>
                <mxCell id="-2r-90PtI8P-8tN_v8Jw-8" value="Authorize" style="ellipse;whiteSpace=wrap;html=1;fillColor=#f8cecc;strokeColor=#b85450;" parent="1" vertex="1">
                    <mxGeometry x="570" y="300" width="140" height="70" as="geometry"/>
                </mxCell>
                <mxCell id="-2r-90PtI8P-8tN_v8Jw-16" value="" style="edgeStyle=orthogonalEdgeStyle;rounded=0;orthogonalLoop=1;jettySize=auto;html=1;endArrow=open;endFill=0;startArrow=none;startFill=0;dashed=1;dashPattern=8 8;" parent="1" source="-2r-90PtI8P-8tN_v8Jw-12" target="-2r-90PtI8P-8tN_v8Jw-15" edge="1">
                    <mxGeometry relative="1" as="geometry"/>
                </mxCell>
                <mxCell id="-2r-90PtI8P-8tN_v8Jw-17" value="&amp;lt;&amp;lt;includes&amp;gt;&amp;gt;" style="edgeLabel;html=1;align=center;verticalAlign=middle;resizable=0;points=[];" parent="-2r-90PtI8P-8tN_v8Jw-16" vertex="1" connectable="0">
                    <mxGeometry x="0.125" relative="1" as="geometry">
                        <mxPoint y="-2" as="offset"/>
                    </mxGeometry>
                </mxCell>
                <mxCell id="-2r-90PtI8P-8tN_v8Jw-12" value="Start quiz" style="ellipse;whiteSpace=wrap;html=1;fillColor=#dae8fc;strokeColor=#6c8ebf;" parent="1" vertex="1">
                    <mxGeometry x="320" y="560" width="140" height="70" as="geometry"/>
                </mxCell>
                <mxCell id="-2r-90PtI8P-8tN_v8Jw-29" style="rounded=0;orthogonalLoop=1;jettySize=auto;html=1;endArrow=none;endFill=0;" parent="1" source="-2r-90PtI8P-8tN_v8Jw-13" target="-2r-90PtI8P-8tN_v8Jw-28" edge="1">
                    <mxGeometry relative="1" as="geometry"/>
                </mxCell>
                <mxCell id="-2r-90PtI8P-8tN_v8Jw-13" value="User" style="shape=umlActor;verticalLabelPosition=bottom;verticalAlign=top;html=1;fillColor=#f5f5f5;fontColor=#333333;strokeColor=#666666;" parent="1" vertex="1">
                    <mxGeometry x="170" y="420" width="30" height="60" as="geometry"/>
                </mxCell>
                <mxCell id="-2r-90PtI8P-8tN_v8Jw-15" value="Get question" style="ellipse;whiteSpace=wrap;html=1;fillColor=#dae8fc;strokeColor=#6c8ebf;" parent="1" vertex="1">
                    <mxGeometry x="320" y="705" width="140" height="70" as="geometry"/>
                </mxCell>
                <mxCell id="-2r-90PtI8P-8tN_v8Jw-18" value="Answer question" style="ellipse;whiteSpace=wrap;html=1;fillColor=#dae8fc;strokeColor=#6c8ebf;" parent="1" vertex="1">
                    <mxGeometry x="320" y="805" width="140" height="70" as="geometry"/>
                </mxCell>
                <mxCell id="-2r-90PtI8P-8tN_v8Jw-19" value="Evaluate answer" style="ellipse;whiteSpace=wrap;html=1;fillColor=#dae8fc;strokeColor=#6c8ebf;" parent="1" vertex="1">
                    <mxGeometry x="320" y="905" width="140" height="70" as="geometry"/>
                </mxCell>
                <mxCell id="-2r-90PtI8P-8tN_v8Jw-26" value="Evaluate quiz" style="ellipse;whiteSpace=wrap;html=1;fillColor=#dae8fc;strokeColor=#6c8ebf;" parent="1" vertex="1">
                    <mxGeometry x="320" y="1005" width="140" height="70" as="geometry"/>
                </mxCell>
                <mxCell id="-2r-90PtI8P-8tN_v8Jw-28" value="See user leaderboard" style="ellipse;whiteSpace=wrap;html=1;fillColor=#f5f5f5;strokeColor=#666666;fontColor=#333333;" parent="1" vertex="1">
                    <mxGeometry x="320" y="415" width="140" height="70" as="geometry"/>
                </mxCell>
                <mxCell id="-2r-90PtI8P-8tN_v8Jw-30" value="" style="endArrow=block;endSize=16;endFill=0;html=1;rounded=0;" parent="1" edge="1">
                    <mxGeometry width="160" relative="1" as="geometry">
                        <mxPoint x="184.5" y="515" as="sourcePoint"/>
                        <mxPoint x="185" y="800" as="targetPoint"/>
                    </mxGeometry>
                </mxCell>
                <mxCell id="-2r-90PtI8P-8tN_v8Jw-31" value="" style="endArrow=block;endSize=16;endFill=0;html=1;rounded=0;" parent="1" edge="1">
                    <mxGeometry width="160" relative="1" as="geometry">
                        <mxPoint x="185" y="410" as="sourcePoint"/>
                        <mxPoint x="185" y="330" as="targetPoint"/>
                        <mxPoint as="offset"/>
                    </mxGeometry>
                </mxCell>
            </root>
        </mxGraphModel>
    </diagram>
</mxfile>